<?xml version="1.0" encoding="UTF-8"?>
<!-- Created with Inkscape (http://www.inkscape.org/) -->
<svg width="1024" height="1024" version="1.1" viewBox="0 0 512 512" xmlns="http://www.w3.org/2000/svg" xmlns:xlink="http://www.w3.org/1999/xlink">
 <defs>
  <linearGradient id="linearGradient10" x2="512" y1="256" y2="256" gradientUnits="userSpaceOnUse">
   <stop offset="0"/>
   <stop stop-opacity="0" offset="1"/>
  </linearGradient>
  <linearGradient id="linearGradient26" x1="256" x2="256" y2="512" gradientUnits="userSpaceOnUse">
   <stop stop-color="#111d2e" offset="0"/>
   <stop stop-color="#051839" offset=".21"/>
   <stop stop-color="#0a1b48" offset=".41"/>
   <stop stop-color="#132e62" offset=".58"/>
   <stop stop-color="#144b7e" offset=".74"/>
   <stop stop-color="#136497" offset=".87"/>
   <stop stop-color="#1387b8" offset="1"/>
  </linearGradient>
 </defs>
 <circle cx="256" cy="256" r="130.83" fill="#fff" stroke-width=".51825"/>
 <g fill="url(#linearGradient10)">
  <g fill="url(#linearGradient26)">
   <path d="m310.1 0-20.561 35.707h-67.241l-20.543-35.678a261.77 261.65 0 0 0-88.095 36.381l10.699 40.036-47.547 47.674-40.237-10.81a261.77 261.65 0 0 0-36.579 88.047l36.294 21.01v67.421l-36.266 20.994a261.77 261.65 0 0 0 36.628 88.027l40.268-10.82 47.547 47.674-10.691 40.003a261.77 261.65 0 0 0 88.115 36.334l20.561-35.707h67.241l20.543 35.678a261.77 261.65 0 0 0 88.095-36.381l-10.699-40.036 47.547-47.674 40.237 10.81a261.77 261.65 0 0 0 36.579-88.047l-36.294-21.01v-67.421l36.266-20.994a261.77 261.65 0 0 0-36.628-88.027l-40.268 10.82-47.547-47.674 10.691-40.003a261.77 261.65 0 0 0-88.115-36.334zm-54.105 125.17a130.89 130.83 0 0 1 130.89 130.83 130.89 130.83 0 0 1-130.89 130.83 130.89 130.83 0 0 1-130.89-130.83 130.89 130.83 0 0 1 130.89-130.83z"/>
   <text x="174.03999" y="340.54001" font-family="'Liberation Sans'" font-size="245.76px" font-weight="bold" stroke-width="1.28" xml:space="preserve"><tspan x="174.03999" y="340.54001" fill="url(#linearGradient26)" font-size="245.76px" stroke-width="1.28">X</tspan></text>
  </g>
 </g>
</svg>
