<?xml version="1.0" encoding="UTF-8" standalone="no"?>
<!-- Created with Inkscape (http://www.inkscape.org/) -->

<svg
   width="1024"
   height="1024"
   viewBox="0 0 512 512"
   version="1.1"
   id="svg1"
   inkscape:version="1.4.2 (ebf0e940d0, 2025-05-08)"
   sodipodi:docname="steam-optionx-x2.svg"
   inkscape:export-filename="steam-optionx.png"
   inkscape:export-xdpi="96"
   inkscape:export-ydpi="96"
   xmlns:inkscape="http://www.inkscape.org/namespaces/inkscape"
   xmlns:sodipodi="http://sodipodi.sourceforge.net/DTD/sodipodi-0.dtd"
   xmlns="http://www.w3.org/2000/svg"
   xmlns:svg="http://www.w3.org/2000/svg">
  <sodipodi:namedview
     id="namedview1"
     pagecolor="#ffffff"
     bordercolor="#000000"
     borderopacity="0.25"
     inkscape:showpageshadow="2"
     inkscape:pageopacity="0.0"
     inkscape:pagecheckerboard="0"
     inkscape:deskcolor="#d1d1d1"
     inkscape:document-units="px"
     showgrid="false"
     showguides="true"
     inkscape:zoom="0.70710678"
     inkscape:cx="31.819805"
     inkscape:cy="256.67976"
     inkscape:window-width="2560"
     inkscape:window-height="1368"
     inkscape:window-x="0"
     inkscape:window-y="0"
     inkscape:window-maximized="1"
     inkscape:current-layer="layer1">
    <inkscape:grid
       id="grid1"
       units="px"
       originx="0"
       originy="0"
       spacingx="1"
       spacingy="1"
       empcolor="#0099e5"
       empopacity="0.30196078"
       color="#0099e5"
       opacity="0.14901961"
       empspacing="5"
       enabled="true"
       visible="false" />
  </sodipodi:namedview>
  <defs
     id="defs1" />
  <g
     inkscape:label="Layer 1"
     inkscape:groupmode="layer"
     id="layer1">
    <path
       d="M 298.26941,56 282.20592,83.895853 H 229.67383 L 213.62435,56.022108 a 204.51028,204.41408 0 0 0 -68.82411,28.422417 l 8.35848,31.278325 -37.14609,37.24539 -31.435475,-8.44513 A 204.51028,204.41408 0 0 0 56,213.3101 l 28.354664,16.41393 v 52.67252 l -28.332615,16.40188 a 204.51028,204.41408 0 0 0 28.615239,68.77091 l 31.459522,-8.45317 37.1461,37.24539 -8.35247,31.2522 A 204.51028,204.41408 0 0 0 213.73059,456 l 16.06349,-27.89586 h 52.53209 l 16.04948,27.87375 a 204.51028,204.41408 0 0 0 68.82411,-28.42242 l -8.35848,-31.27832 37.14609,-37.24539 31.43548,8.44513 A 204.51028,204.41408 0 0 0 456,298.6899 l -28.35467,-16.41393 v -52.67252 l 28.33262,-16.40188 a 204.51028,204.41408 0 0 0 -28.61524,-68.77091 l -31.45952,8.45317 -37.1461,-37.24539 8.35246,-31.252199 A 204.51028,204.41408 0 0 0 298.26941,56 Z M 256,153.79225 A 102.25514,102.20704 0 0 1 358.25599,256 102.25514,102.20704 0 0 1 256,358.20775 102.25514,102.20704 0 0 1 153.74401,256 102.25514,102.20704 0 0 1 256,153.79225 Z"
       style="fill:#000000;fill-opacity:1;stroke:none;stroke-width:1.02232;stroke-opacity:1"
       id="path16" />
    <text
       xml:space="preserve"
       style="font-style:normal;font-variant:normal;font-weight:bold;font-stretch:normal;font-size:192px;font-family:'Liberation Sans';-inkscape-font-specification:'Liberation Sans Bold';text-align:start;writing-mode:lr-tb;direction:ltr;text-anchor:start;fill:#000000;fill-opacity:1;stroke:none;stroke-width:1;stroke-dasharray:none;stroke-opacity:1"
       x="191.96875"
       y="322.04688"
       id="text36"><tspan
         sodipodi:role="line"
         id="tspan36"
         x="191.96875"
         y="322.04688"
         style="font-size:192px">X</tspan></text>
  </g>
</svg>
